<svg xmlns="http://www.w3.org/2000/svg" width="2391" height="1081" viewBox="0 0 2391 1081"><g transform="translate(-4597 3444)"><path d="M1815.182,690.832q-12.27,0-18.057-9.491l-86.118-118.528a25.514,25.514,0,0,0-8.45-7.987q-4.514-2.431-14.006-2.431h-34.03V690.832h-44.68V359.092H1703.6q31.483,0,54.4,6.367t37.85,18.4a73.691,73.691,0,0,1,22.109,29.054q7.175,17.014,7.177,38.082a95.458,95.458,0,0,1-5.557,32.872,86.818,86.818,0,0,1-16.089,27.433,96.245,96.245,0,0,1-25.7,20.719,127.206,127.206,0,0,1-34.378,12.965,44.358,44.358,0,0,1,14.816,14.121L1855,690.832ZM1654.521,519.754h47.226q19.445,0,34.377-4.746t25-13.427a55.705,55.705,0,0,0,15.163-20.72,67.663,67.663,0,0,0,5.092-26.622q0-29.633-19.445-44.68T1703.6,394.511h-49.078ZM1342.459,690.832V359.092h204.414V395.67h-159.5V505.863h129.177v35.188H1387.37v113.2H1547.1l-.231,36.577Zm-209.276,0V558.645L1011.646,359.092H1051q6.02,0,9.491,2.894a25.844,25.844,0,0,1,6.019,7.523l75.932,128.946q4.167,8.1,7.639,15.163a133,133,0,0,1,6.019,14.237q2.548-7.175,5.788-14.237t7.177-15.163l75.7-128.946a25.229,25.229,0,0,1,5.788-7.176,13.888,13.888,0,0,1,9.491-3.242h39.587L1178.094,558.645V690.832Zm-272.939,0L776.21,437.8q-1.157-3.7-2.2-7.871t-2.2-8.8q-1.157,4.631-2.315,8.8t-2.315,7.871l-84.5,253.03H642.4l-103.48-331.74h37.272a16.421,16.421,0,0,1,10.07,3.01,13.348,13.348,0,0,1,5.208,7.64L660,600.315q1.62,6.25,3.125,13.427t2.894,15.279q1.62-8.1,3.356-15.4t3.82-13.311l78.016-230.574a16.928,16.928,0,0,1,5.44-7.293,14.917,14.917,0,0,1,9.839-3.357h12.964q6.018,0,9.723,3.01a18.51,18.51,0,0,1,5.556,7.64l77.784,230.574q2.083,6.018,3.82,12.964t3.357,14.584q1.157-7.638,2.546-14.584t3.01-12.964L954,369.742a14.469,14.469,0,0,1,5.209-7.408,15.254,15.254,0,0,1,9.839-3.242h34.956l-103.48,331.74Zm-344.7,0q-6.018,0-9.723-3.01a18.5,18.5,0,0,1-5.556-7.639l-31.021-80.1H320.387l-31.021,80.1a16.262,16.262,0,0,1-5.324,7.408,14.791,14.791,0,0,1-9.723,3.241H239.593l132.65-331.74h45.374l132.65,331.74ZM384.975,432.941,332.888,567.674H456.74L404.653,432.709q-2.315-6.018-4.862-14.006t-4.862-17.015A252.177,252.177,0,0,1,384.975,432.941ZM42.818,690.832V359.092H87.5V653.1h143.53v37.734ZM436.151,201a58.141,58.141,0,0,1-20.389-13.041,56.509,56.509,0,0,1-12.834-19.976,70.476,70.476,0,0,1-4.451-25.461V53.2H433.46v89.217a46.325,46.325,0,0,0,2.018,14.231,30.037,30.037,0,0,0,5.848,10.66,25.171,25.171,0,0,0,9.366,6.728,35.111,35.111,0,0,0,25.151,0,25.435,25.435,0,0,0,9.367-6.675,29.513,29.513,0,0,0,5.847-10.609,46.323,46.323,0,0,0,2.019-14.231V53.2h34.983v89.32a69.758,69.758,0,0,1-4.5,25.461,57.118,57.118,0,0,1-12.885,19.976A58.149,58.149,0,0,1,490.281,201a80.968,80.968,0,0,1-54.13,0Zm-208.139-1.242a71.983,71.983,0,0,1-40.728-40.779,81.053,81.053,0,0,1-5.64-30.429,81.046,81.046,0,0,1,5.64-30.429,72.386,72.386,0,0,1,15.939-24.426,73.691,73.691,0,0,1,24.789-16.25,84.335,84.335,0,0,1,32.085-5.9A83.306,83.306,0,0,1,292.13,57.5a73.878,73.878,0,0,1,24.685,16.3A72.759,72.759,0,0,1,332.7,98.223a80.75,80.75,0,0,1,5.641,30.325,81.036,81.036,0,0,1-5.641,30.429,71.915,71.915,0,0,1-40.572,40.779,90.056,90.056,0,0,1-64.118,0ZM242.036,83.733a35.838,35.838,0,0,0-13.352,9.522,42.62,42.62,0,0,0-8.331,15.162,65.2,65.2,0,0,0-2.9,20.131,65.557,65.557,0,0,0,2.9,20.234,42.624,42.624,0,0,0,8.331,15.163,35.337,35.337,0,0,0,13.352,9.47,47.1,47.1,0,0,0,18.061,3.261A46.415,46.415,0,0,0,278,173.416a35.426,35.426,0,0,0,13.3-9.47,42.639,42.639,0,0,0,8.332-15.163,65.584,65.584,0,0,0,2.9-20.234,65.223,65.223,0,0,0-2.9-20.131A42.635,42.635,0,0,0,291.3,93.255,35.932,35.932,0,0,0,278,83.733,45.765,45.765,0,0,0,260.1,80.421,46.434,46.434,0,0,0,242.036,83.733ZM1395.389,204a11.834,11.834,0,0,1-7.349-2.122,13.479,13.479,0,0,1-4.243-5.433l-8.9-26.289h-57.339l-8.9,26.289a12.581,12.581,0,0,1-4.089,5.226,11.409,11.409,0,0,1-7.3,2.329h-27.324l58.374-150.8h35.811L1422.506,204ZM1342.811,95.946q-1.759,5.381-3.312,9.315l-13.869,41.09h41.3l-13.973-41.3q-1.553-3.934-3.312-9.264t-3.519-11.54Q1344.57,90.563,1342.811,95.946ZM1045.041,204V53.2h97.083v26.91h-61.893V115.3h47.4v25.875h-47.4V177.09h61.893V204Zm-85.8,0q-8.8,0-12.627-6.624L921.566,153.6a10.176,10.176,0,0,0-10.143-5.382h-8.9V204H867.539V53.2H916.6q16.353,0,27.893,3.363t18.837,9.367a35.453,35.453,0,0,1,10.609,14.179,46.979,46.979,0,0,1,3.312,17.8,47.813,47.813,0,0,1-1.966,13.869,42.8,42.8,0,0,1-5.8,12.057,44.208,44.208,0,0,1-9.471,9.885,50.558,50.558,0,0,1-12.989,7.142,31.653,31.653,0,0,1,6.417,4.4,30.8,30.8,0,0,1,5.382,6.262L990.911,204Zm-56.718-79.9H916.6a35.98,35.98,0,0,0,12.161-1.812,21.973,21.973,0,0,0,8.229-5.019,19.132,19.132,0,0,0,4.658-7.5,28.807,28.807,0,0,0,1.449-9.263q0-9.936-6.469-15.525T916.6,79.386H902.522ZM787.119,204a11.833,11.833,0,0,1-7.349-2.122,13.478,13.478,0,0,1-4.243-5.433l-8.9-26.289H709.287l-8.9,26.289a12.588,12.588,0,0,1-4.089,5.226A11.409,11.409,0,0,1,689,204H661.677L720.051,53.2h35.811L814.236,204ZM734.541,95.946q-1.76,5.381-3.312,9.315l-13.869,41.09h41.3l-13.972-41.3q-1.553-3.934-3.312-9.264t-3.519-11.54Q736.3,90.563,734.541,95.946ZM57.03,204V146.661L2.382,53.2H33.225a11.163,11.163,0,0,1,7.193,2.121,17.232,17.232,0,0,1,4.4,5.434L66.138,104.64q2.691,5.175,4.865,9.677t3.829,8.85q1.553-4.451,3.57-8.953t4.71-9.573l21.114-43.884a19.766,19.766,0,0,1,1.759-2.691,13.5,13.5,0,0,1,2.432-2.433,11.977,11.977,0,0,1,3.209-1.76,11.374,11.374,0,0,1,3.985-.672h31.05l-54.648,93.46V204Z" transform="translate(4863 -3302.832)" fill="#0d3b66"/><g transform="translate(4597 -3444)" fill="none"><path d="M0,0H2391V1081H0Z" stroke="none"/><path d="M 15 15 L 15 1066 L 2376 1066 L 2376 15 L 15 15 M 0 0 L 2391 0 L 2391 1081 L 0 1081 L 0 0 Z" stroke="none" fill="#ff6f0b"/></g></g></svg>