<svg xmlns="http://www.w3.org/2000/svg" width="2391" height="1081" viewBox="0 0 2391 1081"><defs><style>.a{fill:none;}.b{fill:#0d3b66;}.c,.d{stroke:none;}.d{fill:#ff6f0b;}</style></defs><g transform="translate(-167 -1785)"><g class="a" transform="translate(167 1785)"><path class="c" d="M0,0H2391V1081H0Z"/><path class="d" d="M 15 15 L 15 1066 L 2376 1066 L 2376 15 L 15 15 M 0 0 L 2391 0 L 2391 1081 L 0 1081 L 0 0 Z"/></g><path class="b" d="M-620.483-57.339V0h-34.983V-57.339l-54.648-93.46h30.843a11.166,11.166,0,0,1,7.193,2.122,17.225,17.225,0,0,1,4.4,5.434l21.321,43.884q2.691,5.175,4.865,9.677t3.83,8.849q1.552-4.45,3.571-8.953t4.709-9.574l21.114-43.884a19.9,19.9,0,0,1,1.76-2.691,13.525,13.525,0,0,1,2.432-2.432,11.975,11.975,0,0,1,3.208-1.76,11.363,11.363,0,0,1,3.985-.673h31.05Zm246.33-18.112a81.045,81.045,0,0,1-5.641,30.429,73.339,73.339,0,0,1-15.887,24.478,72.856,72.856,0,0,1-24.685,16.3,83.944,83.944,0,0,1-32.033,5.9,84.338,84.338,0,0,1-32.085-5.9,73.3,73.3,0,0,1-24.788-16.3,72.941,72.941,0,0,1-15.939-24.478,81.045,81.045,0,0,1-5.641-30.429,81.045,81.045,0,0,1,5.641-30.429,72.38,72.38,0,0,1,15.939-24.426,73.693,73.693,0,0,1,24.788-16.25,84.338,84.338,0,0,1,32.085-5.9,83.3,83.3,0,0,1,32.033,5.951,73.883,73.883,0,0,1,24.685,16.3,72.772,72.772,0,0,1,15.887,24.426A80.765,80.765,0,0,1-374.153-75.451Zm-35.811,0a65.2,65.2,0,0,0-2.9-20.131,42.634,42.634,0,0,0-8.332-15.163,35.932,35.932,0,0,0-13.3-9.522,45.773,45.773,0,0,0-17.905-3.312,46.445,46.445,0,0,0-18.061,3.312,35.841,35.841,0,0,0-13.352,9.522,42.635,42.635,0,0,0-8.332,15.163,65.2,65.2,0,0,0-2.9,20.131,65.57,65.57,0,0,0,2.9,20.234,42.635,42.635,0,0,0,8.332,15.163,35.338,35.338,0,0,0,13.352,9.47,47.1,47.1,0,0,0,18.061,3.26,46.412,46.412,0,0,0,17.905-3.26,35.424,35.424,0,0,0,13.3-9.47,42.634,42.634,0,0,0,8.332-15.163A65.569,65.569,0,0,0-409.964-75.451Zm160.735,47.817a32.174,32.174,0,0,0,12.575-2.329,25.435,25.435,0,0,0,9.367-6.676,29.508,29.508,0,0,0,5.848-10.609,46.327,46.327,0,0,0,2.018-14.231V-150.8h34.983v89.321a69.757,69.757,0,0,1-4.5,25.461,57.114,57.114,0,0,1-12.886,19.975A58.146,58.146,0,0,1-222.215-3a74.2,74.2,0,0,1-27.014,4.658A74.5,74.5,0,0,1-276.345-3a58.146,58.146,0,0,1-20.39-13.041,56.513,56.513,0,0,1-12.834-19.975,70.48,70.48,0,0,1-4.451-25.461V-150.8h34.983v89.217a46.328,46.328,0,0,0,2.018,14.231,30.04,30.04,0,0,0,5.848,10.66,25.169,25.169,0,0,0,9.367,6.728A32.174,32.174,0,0,0-249.228-27.634ZM46.161-57.649l-13.972-41.3q-1.553-3.933-3.312-9.263t-3.519-11.54q-1.552,6.313-3.312,11.7t-3.312,9.315L4.865-57.649ZM101.74,0H74.623a11.836,11.836,0,0,1-7.348-2.122,13.478,13.478,0,0,1-4.244-5.434l-8.9-26.289H-3.209l-8.9,26.289A12.579,12.579,0,0,1-16.2-2.329,11.41,11.41,0,0,1-23.495,0H-50.819L7.555-150.8H43.367ZM204.1-79.9a35.992,35.992,0,0,0,12.161-1.811,21.974,21.974,0,0,0,8.228-5.02,19.117,19.117,0,0,0,4.658-7.5A28.8,28.8,0,0,0,230.6-103.5q0-9.936-6.469-15.525T204.1-124.614H190.026V-79.9ZM278.415,0H246.744q-8.8,0-12.627-6.624L209.07-50.4a12.129,12.129,0,0,0-3.933-4.088,12.246,12.246,0,0,0-6.21-1.294h-8.9V0H155.043V-150.8H204.1q16.353,0,27.893,3.364t18.837,9.367a35.452,35.452,0,0,1,10.609,14.179,46.976,46.976,0,0,1,3.312,17.8,47.79,47.79,0,0,1-1.966,13.869,42.776,42.776,0,0,1-5.8,12.058,44.218,44.218,0,0,1-9.47,9.884,50.562,50.562,0,0,1-12.989,7.142,31.651,31.651,0,0,1,6.417,4.4,30.784,30.784,0,0,1,5.382,6.262Zm89.32-123.89V-88.7h47.4v25.875h-47.4V-26.91h61.893V0H332.545V-150.8h97.083v26.91Zm286.7,66.24-13.973-41.3q-1.552-3.933-3.312-9.263t-3.519-11.54q-1.552,6.313-3.312,11.7T627-98.739l-13.869,41.09ZM710.01,0H682.893a11.836,11.836,0,0,1-7.348-2.122A13.478,13.478,0,0,1,671.3-7.556l-8.9-26.289H605.061l-8.9,26.289a12.579,12.579,0,0,1-4.088,5.227A11.41,11.41,0,0,1,584.775,0H557.451l58.374-150.8h35.811Z" transform="translate(1145.496 2130.168)"/><path class="b" d="M-697.973-37.735V0H-886.182V-331.74h44.68V-37.735Zm225.713-85.424-52.088-134.964q-2.315-6.019-4.861-14.006t-4.862-17.015a252.241,252.241,0,0,1-9.954,31.253l-52.088,134.733ZM-378.734,0h-34.725q-6.019,0-9.723-3.01a18.508,18.508,0,0,1-5.556-7.64l-31.021-80.1H-608.614l-31.021,80.1a16.256,16.256,0,0,1-5.325,7.408A14.789,14.789,0,0,1-654.682,0h-34.725l132.65-331.74h45.374ZM75.006-331.74-28.475,0H-68.756L-152.79-253.03q-1.158-3.7-2.2-7.871l-2.2-8.8q-1.158,4.63-2.315,8.8t-2.315,7.871L-246.316,0H-286.6l-103.48-331.74h37.271a16.419,16.419,0,0,1,10.07,3.01,13.349,13.349,0,0,1,5.209,7.639L-269-90.517q1.62,6.25,3.125,13.427t2.894,15.279q1.621-8.1,3.357-15.395t3.82-13.311l78.016-230.574a16.937,16.937,0,0,1,5.44-7.292,14.915,14.915,0,0,1,9.839-3.357h12.964q6.019,0,9.723,3.01a18.507,18.507,0,0,1,5.556,7.639L-56.486-90.517q2.083,6.019,3.82,12.964t3.357,14.585q1.157-7.639,2.547-14.585t3.009-12.964L25-321.09a14.469,14.469,0,0,1,5.209-7.408,15.255,15.255,0,0,1,9.839-3.241ZM249.094-132.186V0H204.183V-132.186L82.645-331.74H122q6.019,0,9.492,2.894a25.863,25.863,0,0,1,6.019,7.524l75.932,128.945q4.167,8.1,7.64,15.163a133.141,133.141,0,0,1,6.019,14.237q2.547-7.176,5.788-14.237t7.176-15.163l75.7-128.945a25.233,25.233,0,0,1,5.788-7.177,13.888,13.888,0,0,1,9.492-3.241h39.586ZM618.1-36.577,617.873,0H413.459V-331.74H617.873v36.577H458.37v110.194H587.547v35.188H458.37v113.2Zm154.642-134.5q19.446,0,34.378-4.746t25-13.427a55.693,55.693,0,0,0,15.163-20.719,67.657,67.657,0,0,0,5.093-26.622q0-29.632-19.446-44.68T774.6-296.32H725.521v125.242ZM926,0H886.182q-12.27,0-18.057-9.491L782.007-128.02a25.526,25.526,0,0,0-8.45-7.987q-4.514-2.431-14.006-2.431H725.521V0h-44.68V-331.74H774.6q31.484,0,54.4,6.366t37.85,18.4a73.693,73.693,0,0,1,22.108,29.053q7.177,17.015,7.177,38.082a95.465,95.465,0,0,1-5.556,32.873,86.822,86.822,0,0,1-16.089,27.433,96.261,96.261,0,0,1-25.7,20.719,127.21,127.21,0,0,1-34.378,12.964,44.361,44.361,0,0,1,14.816,14.122Z" transform="translate(1362 2617)"/></g></svg>